<?xml version="1.0" encoding="utf-8"?>
<!-- Generator: Adobe Illustrator 23.0.1, SVG Export Plug-In . SVG Version: 6.00 Build 0)  -->
<svg version="1.1" id="infographic" xmlns="http://www.w3.org/2000/svg" xmlns:xlink="http://www.w3.org/1999/xlink" x="0px"
	 y="0px" viewBox="0 0 477.78 663.83" style="enable-background:new 0 0 477.78 663.83;" xml:space="preserve">
<style type="text/css">
	.st0{fill:#F2EDED;}
	.st1{fill:#808080;}
	.st2{fill:#E50505;}
	.st3{fill:#FFFFFF;stroke:#4D4D4D;stroke-miterlimit:10;}
	.st4{fill:#4D4D4D;}
	.st5{fill:none;stroke:#C1272D;stroke-miterlimit:10;}
	.st6{fill:none;stroke:#999999;stroke-width:0.5;stroke-miterlimit:10;}
	.st7{fill:#C6C1C1;}
	.st8{fill:#6F8BEF;}
	.st9{fill:#EBEDF2;}
	.st10{fill:none;}
	.st11{font-family:'MyriadPro-Regular';}
	.st12{font-size:14px;}
	.st13{font-size:9px;}
	.st14{opacity:0.2;fill:#6F8BEF;}
	.st15{font-size:16.6367px;}
	.st16{font-family:'ArialRoundedMTBold';}
	.st17{font-size:10px;}
	.st18{fill:none;stroke:#2E3192;stroke-width:0.25;stroke-miterlimit:10;}
	.st19{fill:#0B0B0C;}
	.st20{fill:#F99223;}
	.st21{fill:#3F2103;}
	.st22{font-size:6px;}
	.st23{opacity:0.6;fill:none;stroke:#000000;stroke-width:0.25;stroke-miterlimit:10;}
	.st24{fill:#C7B299;}
	.st25{fill:none;stroke:#000000;stroke-width:0.05;stroke-miterlimit:10;}
	.st26{opacity:0.3;fill:#6F8BEF;}
	.st27{fill:#6A6B6D;}
	.st28{fill:#6E64F9;}
	.st29{fill:#89D2F7;}
	.st30{fill:#F9F9F9;}
	.st31{font-size:8px;}
	.st32{fill:none;stroke:#000000;stroke-miterlimit:10;}
	.st33{fill:#3FA9F5;}
	.st34{fill:#7373F4;}
	.st35{fill:#D7D7DB;}
	.st36{fill:#2B2BED;}
	.st37{fill:#F4D916;}
	.st38{fill:#F7849D;}
	.st39{fill:#19F219;}
</style>
<rect id="background" x="-93.72" y="-245.89" class="st0" width="612" height="1756"/>
<rect x="39.38" y="-212.77" class="st10" width="386.88" height="34.56"/>
<text id="title" transform="matrix(1 0 0 1 39.3779 -197.4775)" class="st16" style="font-size:21px;">TEENAGERS AND E-CIGARETTES</text>
<rect x="110.78" y="-166.89" class="st10" width="387" height="141"/>
<text id="intro" transform="matrix(1 0 0 1.25 110.7778 -158.1499)"><tspan x="0" y="0" class="st16" style="font-size:12px; letter-spacing:33;">			</tspan><tspan x="108" y="0" class="st16" style="font-size:12px;">WHAT IS VAPING?</tspan><tspan x="0" y="16.8" class="st16" style="font-size:11px;">Vaping is the act of inhaling and exhaling the aerosol often referred to as </tspan><tspan x="0" y="33.6" class="st16" style="font-size:11px;">vapor produced by an e-cigarette or a similar device. It is called vaping </tspan><tspan x="0" y="50.4" class="st16" style="font-size:11px;">because e-cigarettes do not produce tobacco smoke but an aerosol </tspan><tspan x="0" y="67.2" class="st16" style="font-size:11px;">often mistaken for wtaer vapour that actually contains fine particles. </tspan><tspan x="0" y="84" class="st16" style="font-size:11px;">Many of these particles contain varying amounts of toxic chemicals, </tspan><tspan x="0" y="100.8" class="st16" style="font-size:11px;">which have been linked to heart and respiratory diseases and cancer.</tspan></text>
<g id="Fig.1">
	<g id="e-cigarette">
		<polygon id="cap" class="st1" points="1.45,-148.71 13.59,-148.71 13.59,-137.58 1.79,-137.58 		"/>
		<path id="body_2_" class="st2" d="M19.32-37.78v-93.05c0,0-0.67-2.02-4.05-4.05c0,0,2.02-2.7-2.02-2.7s-12.14,0-12.14,0
			s-3.37,0.67-0.67,2.7c0,0-4.72,1.35-4.72,4.05c0,2.7,0,92.38,0,92.38s0,4.05,3.37,4.05h16.86C15.95-34.41,18.64-33.74,19.32-37.78
			z"/>
		<circle id="power_x5F_button" class="st3" cx="7.52" cy="-92.74" r="4.05"/>
		<g id="atomizer">
			<g id="little_x5F_holes">
				<circle class="st4" cx="1.11" cy="-129.49" r="1.35"/>
				<circle class="st4" cx="13.92" cy="-129.49" r="1.35"/>
			</g>
			<path id="lining" class="st5" d="M-3.95-113.64c0,0,0,2.02,2.02,3.37h18.21c0,0,2.02-0.67,2.7-2.7"/>
		</g>
	</g>
	<g id="lines">
		<line class="st6" x1="13.28" y1="-142.69" x2="44.1" y2="-142.69"/>
		<line class="st6" x1="16" y1="-122.75" x2="46.82" y2="-122.75"/>
		<line class="st6" x1="17.81" y1="-65.64" x2="48.63" y2="-65.64"/>
		<line class="st6" x1="9.65" y1="-91.93" x2="40.47" y2="-91.93"/>
	</g>
	<g id="text">
		<rect x="45.38" y="-145.28" class="st10" width="41.77" height="9.79"/>
		<text transform="matrix(1 0 0 1 45.3837 -141.4199)" class="st11" style="font-size:5.4386px;">Drip Tip </text>
		<rect x="49.01" y="-68.23" class="st10" width="41.77" height="9.79"/>
		<text transform="matrix(1 0 0 1 49.0092 -64.3735)" class="st11" style="font-size:5.4386px;">Battery </text>
		<rect x="47.2" y="-125.34" class="st10" width="41.77" height="9.79"/>
		<text transform="matrix(1 0 0 1 47.1962 -121.4785)" class="st11" style="font-size:5.4386px;">Atomizer </text>
		<rect x="40.85" y="-94.52" class="st10" width="41.77" height="9.79"/>
		<text transform="matrix(1 0 0 1 40.8515 -90.6597)" class="st11" style="font-size:5.4386px;">Power Button</text>
	</g>
	<rect x="-5.74" y="-28.13" class="st10" width="41.04" height="15.84"/>
	<text transform="matrix(1 0 0 1.25 -5.7422 -20.8462)" class="st16 st17">Fig.1</text>
</g>
<g id="fig_x5F_1.2">
	<path id="background_2_" class="st7" d="M21.65,64.11h378.01c0,0,6.32,50-2.11,50c-8.42,0-375.91,0-375.91,0
		S17.44,76.02,21.65,64.11z"/>
	<g id="avatars">
		<g id="blue">
			<g id="avatar">
				<circle id="body" class="st8" cx="44.14" cy="69.88" r="3.38"/>
				<path id="head" class="st8" d="M37.02,75.03c0,0-2.58,0.84-2.58,2.64c0,1.8,0,10.8,0,10.8s1.08,1.98,3.36,0v-8.46
					c0,0,0.54-1.86,1.02,0v27.24c0,0,2.82,3.6,4.14,0V94.11c0,0,0.9-1.32,1.56-0.06v13.38c0,0,2.34,3,4.2,0V79.95
					c0,0,1.02-1.56,1.74,0l0.24,8.4c0,0,1.38,2.22,2.46,0V77.43c0,0,0.24-1.86-2.4-2.4H37.02z"/>
			</g>
			<g id="avatar_3_">
				<circle id="body_4_" class="st8" cx="222.14" cy="69.88" r="3.38"/>
				<path id="head_3_" class="st8" d="M215.02,75.03c0,0-2.58,0.84-2.58,2.64c0,1.8,0,10.8,0,10.8s1.08,1.98,3.36,0v-8.46
					c0,0,0.54-1.86,1.02,0v27.24c0,0,2.82,3.6,4.14,0V94.11c0,0,0.9-1.32,1.56-0.06v13.38c0,0,2.34,3,4.2,0V79.95
					c0,0,1.02-1.56,1.74,0l0.24,8.4c0,0,1.38,2.22,2.46,0V77.43c0,0,0.24-1.86-2.4-2.4H215.02z"/>
			</g>
			<g id="avatar_4_">
				<circle id="body_5_" class="st8" cx="192.14" cy="69.88" r="3.38"/>
				<path id="head_4_" class="st8" d="M185.02,75.03c0,0-2.58,0.84-2.58,2.64c0,1.8,0,10.8,0,10.8s1.08,1.98,3.36,0v-8.46
					c0,0,0.54-1.86,1.02,0v27.24c0,0,2.82,3.6,4.14,0V94.11c0,0,0.9-1.32,1.56-0.06v13.38c0,0,2.34,3,4.2,0V79.95
					c0,0,1.02-1.56,1.74,0l0.24,8.4c0,0,1.38,2.22,2.46,0V77.43c0,0,0.24-1.86-2.4-2.4H185.02z"/>
			</g>
			<g id="avatar_5_">
				<circle id="body_6_" class="st8" cx="162.14" cy="69.88" r="3.38"/>
				<path id="head_5_" class="st8" d="M155.02,75.03c0,0-2.58,0.84-2.58,2.64c0,1.8,0,10.8,0,10.8s1.08,1.98,3.36,0v-8.46
					c0,0,0.54-1.86,1.02,0v27.24c0,0,2.82,3.6,4.14,0V94.11c0,0,0.9-1.32,1.56-0.06v13.38c0,0,2.34,3,4.2,0V79.95
					c0,0,1.02-1.56,1.74,0l0.24,8.4c0,0,1.38,2.22,2.46,0V77.43c0,0,0.24-1.86-2.4-2.4H155.02z"/>
			</g>
			<g id="avatar_6_">
				<circle id="body_7_" class="st8" cx="132.14" cy="69.88" r="3.38"/>
				<path id="head_6_" class="st8" d="M125.02,75.03c0,0-2.58,0.84-2.58,2.64c0,1.8,0,10.8,0,10.8s1.08,1.98,3.36,0v-8.46
					c0,0,0.54-1.86,1.02,0v27.24c0,0,2.82,3.6,4.14,0V94.11c0,0,0.9-1.32,1.56-0.06v13.38c0,0,2.34,3,4.2,0V79.95
					c0,0,1.02-1.56,1.74,0l0.24,8.4c0,0,1.38,2.22,2.46,0V77.43c0,0,0.24-1.86-2.4-2.4H125.02z"/>
			</g>
			<g id="avatar_7_">
				<circle id="body_8_" class="st8" cx="102.14" cy="69.88" r="3.38"/>
				<path id="head_7_" class="st8" d="M95.02,75.03c0,0-2.58,0.84-2.58,2.64c0,1.8,0,10.8,0,10.8s1.08,1.98,3.36,0v-8.46
					c0,0,0.54-1.86,1.02,0v27.24c0,0,2.82,3.6,4.14,0V94.11c0,0,0.9-1.32,1.56-0.06v13.38c0,0,2.34,3,4.2,0V79.95
					c0,0,1.02-1.56,1.74,0l0.24,8.4c0,0,1.38,2.22,2.46,0V77.43c0,0,0.24-1.86-2.4-2.4H95.02z"/>
			</g>
			<g id="avatar_8_">
				<circle id="body_9_" class="st8" cx="72.14" cy="70.88" r="3.38"/>
				<path id="head_8_" class="st8" d="M65.02,76.03c0,0-2.58,0.84-2.58,2.64c0,1.8,0,10.8,0,10.8s1.08,1.98,3.36,0v-8.46
					c0,0,0.54-1.86,1.02,0v27.24c0,0,2.82,3.6,4.14,0V95.11c0,0,0.9-1.32,1.56-0.06v13.38c0,0,2.34,3,4.2,0V80.95
					c0,0,1.02-1.56,1.74,0l0.24,8.4c0,0,1.38,2.22,2.46,0V78.43c0,0,0.24-1.86-2.4-2.4H65.02z"/>
			</g>
		</g>
		<g id="white">
			<g id="avatar_1_">
				<circle id="body_1_" class="st9" cx="282.14" cy="69.88" r="3.38"/>
				<path id="head_1_" class="st9" d="M275.02,75.03c0,0-2.58,0.84-2.58,2.64c0,1.8,0,10.8,0,10.8s1.08,1.98,3.36,0v-8.46
					c0,0,0.54-1.86,1.02,0v27.24c0,0,2.82,3.6,4.14,0V94.11c0,0,0.9-1.32,1.56-0.06v13.38c0,0,2.34,3,4.2,0V79.95
					c0,0,1.02-1.56,1.74,0l0.24,8.4c0,0,1.38,2.22,2.46,0V77.43c0,0,0.24-1.86-2.4-2.4H275.02z"/>
			</g>
			<g id="avatar_2_">
				<circle id="body_3_" class="st9" cx="252.14" cy="69.88" r="3.38"/>
				<path id="head_2_" class="st9" d="M245.02,75.03c0,0-2.58,0.84-2.58,2.64c0,1.8,0,10.8,0,10.8s1.08,1.98,3.36,0v-8.46
					c0,0,0.54-1.86,1.02,0v27.24c0,0,2.82,3.6,4.14,0V94.11c0,0,0.9-1.32,1.56-0.06v13.38c0,0,2.34,3,4.2,0V79.95
					c0,0,1.02-1.56,1.74,0l0.24,8.4c0,0,1.38,2.22,2.46,0V77.43c0,0,0.24-1.86-2.4-2.4H245.02z"/>
			</g>
			<g id="avatar_9_">
				<circle id="body_10_" class="st9" cx="312.14" cy="69.88" r="3.38"/>
				<path id="head_9_" class="st9" d="M305.02,75.03c0,0-2.58,0.84-2.58,2.64c0,1.8,0,10.8,0,10.8s1.08,1.98,3.36,0v-8.46
					c0,0,0.54-1.86,1.02,0v27.24c0,0,2.82,3.6,4.14,0V94.11c0,0,0.9-1.32,1.56-0.06v13.38c0,0,2.34,3,4.2,0V79.95
					c0,0,1.02-1.56,1.74,0l0.24,8.4c0,0,1.38,2.22,2.46,0V77.43c0,0,0.24-1.86-2.4-2.4H305.02z"/>
			</g>
		</g>
	</g>
	<path id="inner_x5F_background" class="st8" d="M386.78,114.11h-47c-6.6,0-12-5.4-12-12v-26c0-6.6,5.4-12,12-12h47
		c6.6,0,12,5.4,12,12v26C398.78,108.71,393.38,114.11,386.78,114.11z"/>
	<rect x="334.7" y="69.27" class="st10" width="60.96" height="41.76"/>
	<text transform="matrix(1 0 0 1 334.6977 79.2144)"><tspan x="0" y="0" class="st11 st12">7</tspan><tspan x="7.18" y="0" class="st11 st13"> in </tspan><tspan x="18.1" y="0" class="st11 st12">10</tspan><tspan x="32.46" y="0" class="st11 st13"> teens </tspan><tspan x="0" y="10.8" class="st11 st13">were exposed </tspan><tspan x="0" y="21.6" class="st11 st13">to ads </tspan></text>
	<g id="h2">
		<path id="background_1_" class="st14" d="M15.99,7h402c0,0,6.72,29.11-2.24,29.11c-8.96,0-399.76,0-399.76,0S11.51,13.93,15.99,7z
			"/>
		<rect x="59.17" y="15.43" class="st10" width="388.61" height="20.63"/>
		<text transform="matrix(0.8077 0 0 1 59.1694 27.2412)" class="st11 st15">HIGH TEEN EXPOSURE TO E-CIGARETTES ADVERTISING</text>
	</g>
	<rect x="426.26" y="58.87" class="st10" width="51.52" height="19.24"/>
	<text transform="matrix(1 0 0 1.25 426.2582 66.1538)" class="st16 st17">Fig.1.2</text>
</g>
<g id="fig_x5F_1.3">
	<g id="Internet_x5F_ads">
		<g id="laptop_x5F_icon">
			<rect x="32.78" y="164.11" class="st18" width="19" height="10"/>
			<polygon class="st19" points="51.78,174.11 62.78,178.11 42.78,178.11 33.78,174.11 			"/>
		</g>
		<rect x="86.78" y="164.11" class="st20" width="117" height="7"/>
		<rect x="86.78" y="171.11" class="st21" width="103" height="7"/>
		<rect x="136.54" y="178.75" class="st10" width="33.36" height="7.2"/>
		<text transform="matrix(1 0 0 1 136.5375 183.0142)" class="st11 st22">35.8%</text>
		<rect x="137.54" y="158.75" class="st10" width="33.36" height="7.2"/>
		<text transform="matrix(1 0 0 1 137.5375 163.0142)" class="st11 st22">42.9%</text>
		<rect x="29.98" y="154.43" class="st10" width="25.56" height="12.24"/>
		<text transform="matrix(1 0 0 1 29.978 158.6939)" class="st11 st22">Internet </text>
	</g>
	<g id="paper_x5F_ads">
		<g id="magazine_x5F_icon">
			<rect x="32.78" y="207.11" class="st7" width="23" height="22"/>
			<path class="st23" d="M35.87,212.61c0,0,3.54-1,5.31,0c1.77,1,4.42,0,4.42,0s2.65-2,3.54,0c0.88,2,4.42-1,4.42-1"/>
			<path class="st23" d="M35.87,216.61c0,0,3.54-1,5.31,0c1.77,1,4.42,0,4.42,0s2.65-2,3.54,0c0.88,2,4.42-1,4.42-1"/>
			<path class="st23" d="M35.87,220.61c0,0,3.54-1,5.31,0c1.77,1,4.42,0,4.42,0s2.65-2,3.54,0c0.88,2,4.42-1,4.42-1"/>
			<path class="st23" d="M35.87,224.61c0,0,3.54-1,5.31,0c1.77,1,4.42,0,4.42,0s2.65-2,3.54,0c0.88,2,4.42-1,4.42-1"/>
		</g>
		<rect x="86.78" y="212.11" class="st20" width="97" height="7"/>
		<rect x="86.78" y="219.11" class="st21" width="88" height="7"/>
		<rect x="134.54" y="206.75" class="st10" width="33.36" height="7.2"/>
		<text transform="matrix(1 0 0 1 134.5375 211.0142)" class="st11 st22">34.6%</text>
		<rect x="134.54" y="226.75" class="st10" width="33.36" height="7.2"/>
		<text transform="matrix(1 0 0 1 134.5375 231.0142)" class="st11 st22">25.0%</text>
		<rect x="21.78" y="197.43" class="st10" width="56" height="13.68"/>
		<text transform="matrix(1 0 0 1 21.7778 201.6939)" class="st11 st22">Newspaper/magazine </text>
	</g>
	<g id="movies_x5F_ad">
		<g id="movie_x5F_icon">
			<rect x="32.78" y="268.11" width="23" height="14"/>
			<rect x="32.78" y="268.11" class="st24" width="23" height="4"/>
			
				<rect x="32.78" y="262.11" transform="matrix(0.9905 -0.1372 0.1372 0.9905 -35.8305 8.5765)" class="st24" width="23" height="4"/>
		</g>
		<rect x="86.78" y="271.11" class="st21" width="100" height="7"/>
		<rect x="86.78" y="264.11" class="st20" width="104" height="7"/>
		<rect x="134.54" y="258.75" class="st10" width="33.36" height="7.2"/>
		<text transform="matrix(1 0 0 1 134.5375 263.0137)" class="st11 st22">38.4%</text>
		<rect x="134.54" y="278.75" class="st10" width="33.36" height="7.2"/>
		<text transform="matrix(1 0 0 1 134.5375 283.0137)" class="st11 st22">34.1%</text>
		<rect x="33.78" y="253.43" class="st10" width="26.76" height="12.24"/>
		<text transform="matrix(1 0 0 1 33.7778 257.6943)" class="st11 st22">TV/Movies</text>
	</g>
	<g id="Retail_x5F_ads">
		<g id="retail_x5F_icon">
			<g id="paper">
				<rect x="33.78" y="318.11" class="st7" width="14" height="22"/>
				<path class="st23" d="M35.66,323.61c0,0,2.15-1,3.23,0s2.69,0,2.69,0s1.62-2,2.15,0c0.54,2,2.69-1,2.69-1"/>
				<path class="st23" d="M35.66,327.61c0,0,2.15-1,3.23,0s2.69,0,2.69,0s1.62-2,2.15,0c0.54,2,2.69-1,2.69-1"/>
				<path class="st23" d="M35.66,331.61c0,0,2.15-1,3.23,0s2.69,0,2.69,0s1.62-2,2.15,0c0.54,2,2.69-1,2.69-1"/>
				<path class="st23" d="M35.66,335.61c0,0,2.15-1,3.23,0s2.69,0,2.69,0s1.62-2,2.15,0c0.54,2,2.69-1,2.69-1"/>
			</g>
			<circle class="st25" cx="49.78" cy="334.11" r="6"/>
			<rect x="47.43" y="330.61" class="st10" width="7.73" height="7.59"/>
			<text transform="matrix(1 0 0 1 47.4316 337.0039)" class="st11 st13">$</text>
		</g>
		<rect x="85.78" y="325.11" class="st20" width="130" height="7"/>
		<rect x="85.78" y="332.11" class="st21" width="124" height="7"/>
		<rect x="136.54" y="319.75" class="st10" width="33.36" height="7.2"/>
		<text transform="matrix(1 0 0 1 136.5375 324.0137)" class="st11 st22">56.3%</text>
		<rect x="136.54" y="339.75" class="st10" width="33.36" height="7.2"/>
		<text transform="matrix(1 0 0 1 136.5375 344.0137)" class="st11 st22">52.8%</text>
		<rect x="31.98" y="308.43" class="st10" width="25.56" height="12.24"/>
		<text transform="matrix(1 0 0 1 31.978 312.6943)" class="st11 st22">Retail Ads</text>
	</g>
	<g id="middle_x5F_school">
		<rect x="260.78" y="271.11" class="st21" width="28" height="19"/>
		<rect x="308.78" y="273.67" class="st10" width="138.24" height="25.92"/>
		<text transform="matrix(1 0 0 1 308.7778 283.6138)" class="st11 st12">Middle School students</text>
	</g>
	<g id="high_x5F_school">
		<rect x="260.78" y="199.11" class="st20" width="28" height="19"/>
		<rect x="309.78" y="203.67" class="st10" width="138.24" height="25.92"/>
		<text transform="matrix(1 0 0 1 309.7778 213.6143)" class="st11 st12">High School students</text>
	</g>
	<rect x="333.26" y="312.87" class="st10" width="41.04" height="15.84"/>
	<text transform="matrix(1 0 0 1.25 333.2582 320.1538)" class="st16 st17">Fig.1.3</text>
</g>
<g id="fig_x5F_1.4">
	<g id="h3">
		<path id="info_x5F_bubble" class="st26" d="M81.78,422.11c0,0,29-32,53-24s86-16,86-16s73-3,90,5s34,21,23,30c0,0,2,49-49,47
			s-67,26-109,9S80.78,498.11,81.78,422.11z"/>
		<rect x="97.78" y="415.59" class="st10" width="252" height="42.64"/>
		<text transform="matrix(1 0 0 1 97.7778 425.5342)"><tspan x="0" y="0" class="st11 st12">Teens are more likely to use E-cigarettes </tspan><tspan x="0" y="16.8" class="st11 st12">than actual Cigarettes</tspan></text>
	</g>
	<g id="chart_x5F_icons">
		<path id="left" class="st27" d="M113.3,501.79c0,0-17.44-14.4,0-28.8c17.44-14.4,29.32,7.2,28.96,7.56
			c-0.36,0.36,5.76,17.28-5.04,21.24c0,0,9.72,11.16,9.72,13.32c0,2.16,0,58.68,0,58.68h-41.39v-57.96
			C105.55,515.83,104.5,516.91,113.3,501.79z"/>
		<path id="right" class="st28" d="M82.62,515.32c0,0-15.92-11.69,0-23.39s26.77,5.85,26.44,6.14c-0.33,0.29,5.26,14.03-4.6,17.25
			c0,0,8.88,9.06,8.88,10.82c0,1.75,0,47.66,0,47.66H75.54v-47.07C75.54,526.72,74.59,527.6,82.62,515.32z"/>
	</g>
	<g id="chart_x5F_icons_1_">
		<path id="left_1_" class="st27" d="M211.3,501.79c0,0-17.44-14.4,0-28.8c17.44-14.4,29.32,7.2,28.96,7.56
			c-0.36,0.36,5.76,17.28-5.04,21.24c0,0,9.72,11.16,9.72,13.32c0,2.16,0,58.68,0,58.68h-41.39v-57.96
			C203.55,515.83,202.5,516.91,211.3,501.79z"/>
		<path id="right_1_" class="st28" d="M180.62,515.32c0,0-15.92-11.69,0-23.39s26.77,5.85,26.44,6.14
			c-0.33,0.29,5.26,14.03-4.6,17.25c0,0,8.88,9.06,8.88,10.82c0,1.75,0,47.66,0,47.66h-37.79v-47.07
			C173.54,526.72,172.59,527.6,180.62,515.32z"/>
	</g>
	<g id="chart_x5F_icons_2_">
		<path id="left_2_" class="st27" d="M309.3,501.79c0,0-17.44-14.4,0-28.8c17.44-14.4,29.32,7.2,28.96,7.56
			c-0.36,0.36,5.76,17.28-5.04,21.24c0,0,9.72,11.16,9.72,13.32c0,2.16,0,58.68,0,58.68h-41.39v-57.96
			C301.55,515.83,300.5,516.91,309.3,501.79z"/>
		<path id="right_2_" class="st28" d="M278.62,515.32c0,0-15.92-11.69,0-23.39c15.92-11.69,26.77,5.85,26.44,6.14
			c-0.33,0.29,5.26,14.03-4.6,17.25c0,0,8.88,9.06,8.88,10.82c0,1.75,0,47.66,0,47.66h-37.79v-47.07
			C271.54,526.72,270.59,527.6,278.62,515.32z"/>
	</g>
	<rect id="base" x="75.78" y="573.11" class="st29" width="267" height="21"/>
	<circle id="cig_x5F_marker" class="st28" cx="118.78" cy="620.11" r="13"/>
	<circle id="e-cig_x5F_marker" class="st27" cx="292.78" cy="618.11" r="13"/>
	<rect x="83.46" y="499.11" class="st10" width="29.32" height="21.6"/>
	<text transform="matrix(1 0 0 1 83.458 506.2139)" class="st30 st11 st17">3.6%</text>
	<rect x="91.98" y="578.79" class="st10" width="51.8" height="20.32"/>
	<text transform="matrix(1 0 0 1 91.978 588.7334)"><tspan x="0" y="0" class="st30 st11 st12">8</tspan><tspan x="7.18" y="0" class="st30 st11 st13">th Grade</tspan></text>
	<rect x="184.98" y="578.79" class="st10" width="51.8" height="20.32"/>
	<text transform="matrix(1 0 0 1 184.978 588.7334)"><tspan x="0" y="0" class="st30 st11 st12">10</tspan><tspan x="14.36" y="0" class="st30 st11 st13">th Grade</tspan></text>
	<rect x="283.98" y="577.79" class="st10" width="51.8" height="20.32"/>
	<text transform="matrix(1 0 0 1 283.978 587.7334)"><tspan x="0" y="0" class="st30 st11 st12">12</tspan><tspan x="14.36" y="0" class="st30 st11 st13">th Grade</tspan></text>
	<rect x="114.46" y="480.11" class="st10" width="29.32" height="21.6"/>
	<text transform="matrix(1 0 0 1 114.458 487.2139)" class="st30 st11 st17">9.5%</text>
	<rect x="182.46" y="499.11" class="st10" width="29.32" height="21.6"/>
	<text transform="matrix(1 0 0 1 182.4579 506.2139)" class="st30 st11 st17">6.3%</text>
	<rect x="212.46" y="481.11" class="st10" width="29.32" height="21.6"/>
	<text transform="matrix(1 0 0 1 212.4579 488.2139)" class="st30 st11 st17">14.0%</text>
	<rect x="280.46" y="501.11" class="st10" width="29.32" height="21.6"/>
	<text transform="matrix(1 0 0 1 280.4575 508.2139)" class="st30 st11 st17">11.4%</text>
	<rect x="310.46" y="481.11" class="st10" width="29.32" height="21.6"/>
	<text transform="matrix(1 0 0 1 310.4575 488.2139)" class="st30 st11 st17">16.2%</text>
	<rect x="103.86" y="634.71" class="st10" width="43.2" height="21.12"/>
	<text transform="matrix(1 0 0 1 103.8579 640.3936)" class="st11 st31">cigarette</text>
	<rect x="285.86" y="632.71" class="st10" width="43.2" height="21.12"/>
	<text transform="matrix(1 0 0 1 285.8578 638.3936)" class="st11 st31">E-cig</text>
	<rect x="14.26" y="495.87" class="st10" width="41.04" height="15.84"/>
	<text transform="matrix(1 0 0 1.25 14.2578 503.1538)" class="st16 st17">Fig.1.4</text>
</g>
<g id="fig_x5F_1.5">
	<g id="h4">
		<path id="background_3_" class="st14" d="M1.99,672h402c0,0,6.72,29.11-2.24,29.11c-8.96,0-399.76,0-399.76,0
			S-2.49,678.93,1.99,672z"/>
		<rect x="45.17" y="680.43" class="st10" width="388.61" height="20.63"/>
		<text transform="matrix(0.8077 0 0 1 45.1694 692.2417)" class="st11 st15">TEEN E-CIG USERS ARE MORE LIKELY TO START SMOKING</text>
	</g>
	<rect x="84.02" y="725.51" class="st10" width="388.8" height="90.72"/>
	<text id="h5" transform="matrix(1 0 0 1 84.018 738.2949)" class="st11" style="font-size:18px;">START SMOKING AFTER 6 MONTHS</text>
	<g id="bar_x5F_chart">
		<line id="base_1_" class="st32" x1="104.78" y1="850.11" x2="284.28" y2="850.11"/>
		<rect id="e_x5F_cig_x5F_bar" x="106.28" y="761.61" class="st33" width="76" height="88"/>
		<rect id="non_x5F_user" x="206.49" y="822.11" class="st34" width="75.57" height="27.5"/>
		<rect x="120.22" y="856.79" class="st10" width="68.4" height="27.36"/>
		<text transform="matrix(1 0 0 1 120.2177 865.3135)" class="st11" style="font-size:12px;">E-cig user</text>
		<rect x="219.22" y="855.79" class="st10" width="68.4" height="27.36"/>
		<text transform="matrix(1 0 0 1 219.2177 864.3135)" class="st11" style="font-size:12px;">non- user</text>
	</g>
	<rect x="16.26" y="769.87" class="st10" width="41.04" height="15.84"/>
	<text transform="matrix(1 0 0 1.25 16.2578 777.1538)" class="st16 st17">Fig.1.5</text>
</g>
<g id="fig_x5F_1.6">
	<rect x="-45.7" y="910.67" class="st10" width="581.48" height="84.96"/>
	<text id="h6" transform="matrix(1 0 0 1 -45.7022 925.584)" class="st11" style="font-size:21px;">HOW MANY TEEN USERS KNOW WHAT’S INSIDE THIER E-CIG?</text>
	<g id="bar_x5F_chart_1_">
		<circle id="chart_x5F_background" class="st35" cx="206.81" cy="1096.59" r="133.96"/>
		<path id="nicotine" class="st36" d="M206.92,1096.34l1.5-134.22c0,0,60.79,2.11,95.18,41.5L206.92,1096.34z"/>
		<path id="marijuana" class="st37" d="M206.92,1096.34l123.95-50.7c0,0-16.76-32.14-27.27-42.02L206.92,1096.34z"/>
		<path id="other" class="st38" d="M208.21,1096.99l-103.44-87.1c0,0-5.45,4.71-6.41,7.54L208.21,1096.99z"/>
		<path id="clueless" class="st39" d="M206.81,1096.59l1.61-134.47c0,0-62.87-2.09-103.65,47.76L206.81,1096.59z"/>
	</g>
	<g id="chart_x5F_labels">
		<circle id="e-cig_x5F_marker_1_" class="st39" cx="24.78" cy="1279.11" r="13"/>
		<circle id="e-cig_x5F_marker_2_" class="st36" cx="24.78" cy="1319.11" r="13"/>
		<circle id="e-cig_x5F_marker_3_" class="st37" cx="24.78" cy="1359.11" r="13"/>
		<circle id="e-cig_x5F_marker_4_" class="st38" cx="24.78" cy="1399.11" r="13"/>
		<circle id="e-cig_x5F_marker_5_" class="st35" cx="24.78" cy="1439.11" r="13"/>
		<rect x="79.38" y="1275.11" class="st10" width="206.4" height="23.24"/>
		<text transform="matrix(1 0 0 1 79.3779 1283.6338)" class="st11" style="font-size:12px;">CLUELESS </text>
		<rect x="80.38" y="1313.11" class="st10" width="206.4" height="23.24"/>
		<text transform="matrix(1 0 0 1 80.3779 1321.6338)" class="st11" style="font-size:12px;">NICOTINE </text>
		<rect x="80.38" y="1354.11" class="st10" width="206.4" height="23.24"/>
		<text transform="matrix(1 0 0 1 80.3779 1362.6338)" class="st11" style="font-size:12px;">MARIJUANA </text>
		<rect x="81.38" y="1393.11" class="st10" width="206.4" height="23.24"/>
		<text transform="matrix(1 0 0 1 81.3779 1401.6338)" class="st11" style="font-size:12px;">OTHER </text>
		<rect x="81.38" y="1433.11" class="st10" width="206.4" height="23.24"/>
		<text transform="matrix(1 0 0 1 81.3779 1441.6338)" class="st11" style="font-size:12px;">FLAVOURING </text>
	</g>
	<g id="pointers">
		<line class="st32" x1="37.28" y1="992.61" x2="98" y2="1015.35"/>
		<line class="st32" x1="76.28" y1="970.61" x2="134.28" y2="982.61"/>
		<line class="st32" x1="378.72" y1="992.77" x2="322.56" y2="1025.19"/>
		<line class="st32" x1="283.94" y1="983.4" x2="345.34" y2="962.57"/>
		<line class="st32" x1="12.22" y1="1136.98" x2="77.06" y2="1136.98"/>
	</g>
	<g id="PERCENTAGES">
		<rect x="3.18" y="982.63" class="st10" width="32.16" height="21.6"/>
		<text transform="matrix(1 0 0 1 3.1777 991.1533)" class="st11" style="font-size:12px;">1.3% </text>
		<rect x="-14.82" y="1130.63" class="st10" width="32.16" height="21.6"/>
		<text transform="matrix(1 0 0 1 -14.8223 1139.1533)" class="st11" style="font-size:12px;">66.0% </text>
		<rect x="51.18" y="963.63" class="st10" width="32.16" height="21.6"/>
		<text transform="matrix(1 0 0 1 51.1777 972.1533)" class="st11" style="font-size:12px;">13.7% </text>
		<rect x="381.18" y="984.63" class="st10" width="32.16" height="21.6"/>
		<text transform="matrix(1 0 0 1 381.1777 993.1533)" class="st11" style="font-size:12px;">5.8% </text>
		<rect x="345.18" y="956.63" class="st10" width="32.16" height="21.6"/>
		<text transform="matrix(1 0 0 1 345.1777 965.1533)" class="st11" style="font-size:12px;">13.2% </text>
	</g>
	<rect x="285.18" y="1308.07" class="st10" width="174.24" height="151.2"/>
	<text id="sidenote" transform="matrix(1 0 0 1 285.1782 1320.8545)"><tspan x="0" y="0" class="st11" style="font-size:18px;">manufacturers do not </tspan><tspan x="0" y="21.6" class="st11" style="font-size:18px;">have to report e-cig </tspan><tspan x="0" y="43.2" class="st11" style="font-size:18px;">ingredients, so most </tspan><tspan x="0" y="64.8" class="st11" style="font-size:18px;">users dont actually </tspan><tspan x="0" y="86.4" class="st11" style="font-size:18px;">know what’s in them.</tspan></text>
	<rect x="382.26" y="1150.87" class="st10" width="41.04" height="15.84"/>
	<text transform="matrix(1 0 0 1.25 382.2578 1158.1538)" class="st16 st17">Fig.1.6</text>
</g>
<rect x="-54.22" y="1489.35" class="st10" width="587.6" height="34.56"/>
<text id="source" transform="matrix(1 0 0 1.25 -54.2222 1495.9063)" class="st16 st13">Source: National Institute on Drug Abuse; National Institutes of Health; U.S. Department of Health and Human Services.</text>
</svg>
