<?xml version="1.0" encoding="utf-8"?>
<!-- Generator: Adobe Illustrator 23.0.4, SVG Export Plug-In . SVG Version: 6.00 Build 0)  -->
<svg version="1.1" id="wine_x5F_label" xmlns="http://www.w3.org/2000/svg" xmlns:xlink="http://www.w3.org/1999/xlink" x="0px"
	 y="0px" viewBox="0 0 505.28 686" style="enable-background:new 0 0 505.28 686;" xml:space="preserve">
<style type="text/css">
	.st0{opacity:0.2;fill:#F7A8A6;}
	.st1{fill:none;stroke:#050606;stroke-miterlimit:10;}
	.st2{fill:#E6E7E8;}
	.st3{fill:#F1F2F2;}
	.st4{fill:#FDFEFE;}
	.st5{display:none;fill:none;stroke:#020202;stroke-width:1.5;stroke-miterlimit:10;}
	.st6{fill:none;stroke:#010101;stroke-miterlimit:10;}
	.st7{fill:#010101;}
	.st8{fill:none;stroke:#010101;stroke-width:1.2;stroke-miterlimit:10;}
	.st9{fill:#070808;}
	.st10{fill:none;}
	.st11{font-family:'MyriadPro-Regular';}
	.st12{font-size:40px;}
	.st13{font-size:48px;}
	.st14{font-family:'Castellar';}
	.st15{font-size:72px;}
	.st16{font-size:14px;}
	.st17{letter-spacing:2.73;}
	.st18{font-family:'AvianoRoyale-Reg';}
	.st19{font-size:24px;}
	.st20{letter-spacing:5.45;}
	.st21{font-size:10px;}
	.st22{letter-spacing:1.82;}
</style>
<rect id="background" class="st0" width="505.28" height="666.12"/>
<g id="outer_x5F_decoration">
	<g id="left_x5F_side_x5F_deco">
		<path class="st1" d="M124.07,44.04c0,0-0.24-12.96-6.72,0c0,0,0,10.8,11.04,3.84c0,0,13.8-14.64,0-20.16
			c0,0-84.96-12.96-102.72,25.92c0,0-4.8,19.92,21.12,6.72c0,0,46.56-33.12,51.84-38.88c0,0,8.28-2.64,3.36,7.2"/>
		<path class="st1" d="M44.99,122.88c0,0-13.68,0.72,0-6.12c0,0,9,3.24,0,16.2c0,0-11.88,6.48-17.28-8.1c0,0-8.56-77.94,21.28-98.82
			c0,0,23.36-10.08,13.28,14.76c0,0-1.8,14.4-13.32,26.28c0,0-12.6,10.08-19.44,19.44s-9.36,19.08-1.44,15.84"/>
		<path class="st1" d="M43.98,147.72c0,0-11.23-2.16-2.95,6.84c0,0,9,0,7.56-8.64c0,0-8.28-15.84-22.68,0V510.6
			c0,0-3.96,20.52,15.48,18c0,0,14.4-4.68,9-12.96c0,0-6.12-7.92-13.32-1.44c0,0,3.6,7.56,6.48,4.32"/>
		<path class="st1" d="M44.27,543c0,0-12.6,1.44,0,6.84c0,0,12.96,0,1.8-14.4c0,0-8.28-11.16-18.36,5.04c0,0-4.32,45.72,2.16,61.2
			c0,0,5.76,27.72,18,37.44c0,0,13.68,7.56,16.56-1.44c2.88-9-12.96-38.88-23.4-45.36S14.39,561,28.07,563.52"/>
		<path class="st1" d="M124.55,622.56c2.88,3.96-6.12,11.52-7.56,2.88c0,0,0.36-10.08,7.56-7.56c0,0,12.24,1.8,9.72,12.96
			c0,0-5.76,11.34-17.28,11.25c0,0-59.86-2.97-65.39-7.65c0,0-16.64-6.48-26.02-18.72c0,0-3.27-13.68,8.61-13.32
			c0,0,24.12,6.56,36.36,19.84c0,0,16.2,15.98,23.76,19.85c7.56,3.87,12.24,2.43,9-2.97"/>
	</g>
	<path id="top" class="st1" d="M148.55,43.02c0,0-3.84-9.54,6.72-5.22c0,0,1.72,8.16-3.7,12c0,0-15.02-1.44-13.58-18.72
		c0,0,4.8-6.45,15.36-7.06h199.2c0,0,21.12,2.26,12.96,19c0,0-1.92,7.26-12,6.78c0,0-11.52-6.78-1.44-12.88
		c6.66-4.03,5.28,4.6,3.84,6.1"/>
	<g id="right_x5F_side_x5F_deco">
		<path class="st1" d="M380.36,44.04c0,0,0.24-12.96,6.72,0c0,0,0,10.8-11.04,3.84c0,0-13.8-14.64,0-20.16
			c0,0,84.96-12.96,102.72,25.92c0,0,4.8,19.92-21.12,6.72c0,0-46.56-33.12-51.84-38.88c0,0-8.28-2.64-3.36,7.2"/>
		<path class="st1" d="M459.44,122.88c0,0,13.68,0.72,0-6.12c0,0-9,3.24,0,16.2c0,0,11.88,6.48,17.28-8.1
			c0,0,8.56-77.94-21.28-98.82c0,0-23.36-10.08-13.28,14.76c0,0,1.8,14.4,13.32,26.28c0,0,12.6,10.08,19.44,19.44
			s9.36,19.08,1.44,15.84"/>
		<path class="st1" d="M460.46,147.72c0,0,11.23-2.16,2.95,6.84c0,0-9,0-7.56-8.64c0,0,8.28-15.84,22.68,0V510.6
			c0,0,3.96,20.52-15.48,18c0,0-14.4-4.68-9-12.96c0,0,6.12-7.92,13.32-1.44c0,0-3.6,7.56-6.48,4.32"/>
		<path class="st1" d="M460.16,543c0,0,12.6,1.44,0,6.84c0,0-12.96,0-1.8-14.4c0,0,8.28-11.16,18.36,5.04c0,0,4.32,45.72-2.16,61.2
			c0,0-5.76,27.72-18,37.44c0,0-13.68,7.56-16.56-1.44c-2.88-9,12.96-38.88,23.4-45.36s26.64-31.32,12.96-28.8"/>
		<path class="st1" d="M379.88,622.56c-2.88,3.96,6.12,11.52,7.56,2.88c0,0-0.36-10.08-7.56-7.56c0,0-12.24,1.8-9.72,12.96
			c0,0,5.76,11.34,17.28,11.25c0,0,59.86-2.97,65.39-7.65c0,0,16.64-6.48,26.02-18.72c0,0,3.27-13.68-8.61-13.32
			c0,0-24.12,6.56-36.36,19.84c0,0-16.2,15.98-23.76,19.85c-7.56,3.87-12.24,2.43-9-2.97"/>
	</g>
	<path id="bottom" class="st1" d="M147.55,622.82c0,0-3.84,9.54,6.72,5.22c0,0,1.72-8.16-3.7-12c0,0-15.02,1.44-13.58,18.72
		c0,0,4.8,6.45,15.36,7.06h199.2c0,0,21.12-2.26,12.96-19c0,0-1.92-7.26-12-6.78c0,0-11.52,6.78-1.44,12.88
		c6.66,4.03,5.28-4.6,3.84-6.1"/>
	<g id="circles">
		<ellipse id="circle" class="st1" cx="63.89" cy="602.22" rx="4.86" ry="5.58"/>
		<ellipse id="circle_1_" class="st1" cx="136.89" cy="609.22" rx="4.86" ry="5.58"/>
		<ellipse id="circle_2_" class="st1" cx="136.89" cy="58.22" rx="4.86" ry="5.58"/>
		<ellipse id="circle_3_" class="st1" cx="63.89" cy="64.22" rx="4.86" ry="5.58"/>
		<ellipse id="circle_4_" class="st1" cx="440.89" cy="64.22" rx="4.86" ry="5.58"/>
		<ellipse id="circle_5_" class="st1" cx="368.89" cy="58.22" rx="4.86" ry="5.58"/>
		<ellipse id="circle_6_" class="st1" cx="439.89" cy="602.22" rx="4.86" ry="5.58"/>
		<ellipse id="circle_7_" class="st1" cx="367.89" cy="609.22" rx="4.86" ry="5.58"/>
	</g>
</g>
<g id="kellog_x27_s_x5F_logo">
	<g id="letter_x5F_k">
		<path d="M170.59,127.16c0,0,2.4-7.08,26.64-17.28c0,0,7.92-3.96,2.52,3.96c0,0-19.08,33.84-21.6,35.64c0,0-12.96,6.84-7.56-5.4
			l17.28-19.44c0,0,0.45-5.28-2.42-0.96l-8.62,8.16C176.83,131.84,169.63,135.92,170.59,127.16z"/>
		<path d="M192.06,127.27c0,0,9.57-7.48,14.29-12.47c0,0,8.64-12,11.28-12.96c0,0,9.6-0.96,5.52,5.52c0,0-0.92,2.65-9.12,11.28
			c0,0-7.44,7.68-14.16,9.6c0,0-2.88,18.45-2.64,23.15c0,0,3.84,4.93-0.48,5.41c0,0-7.92,2.37-9.12-5.41c0,0,0.69-8.71,3.12-14.27
			C190.75,137.12,190.92,135.75,192.06,127.27z"/>
	</g>
	<g id="letters_x5F_e_x5F_l_x5F_l">
		<path id="ELL" d="M197.68,144.41c0,0,3.13,0.93,3.95-1.41s1.9-12.78,11.08-16.56c9.18-3.78,4.86,10.16,5.4,9.31
			c0.54-0.85-4.14,7.2-8.1,8.84c-3.96,1.65,9.54-3.03,10.62-4.11s-1.08-25.92,23.58-30.42c0,0,4.68-0.9,0,9.36
			c0,0-8.64,16.74-15.66,19.26c0,0-2.34,5.22,1.8,4.32s3.24-0.36,8.28-3.96c0,0,5.04-26.82,24.48-34.2c0,0,5.22-1.44,3.06,6.66
			c0,0-9.18,21.96-20.16,28.08c0,0-0.18,4.32,4.32,3.78c0,0,1.71,0.18-0.72,5.04c0,0-1.53,3.69-5.22,2.99c0,0-4.79-2.72-5.76-5.69
			c0,0-1.89,4.68-10.98,4.86c0,0-3.49-0.09-6.66-4.14c0,0-10.89,7.47-17.28,1.44l-6.03-0.18V144.41z"/>
		<path class="st2" d="M213.67,131.48c0,0-4.2,1.56-4.56,6.48C208.75,142.88,216.19,132.32,213.67,131.48z"/>
		<path class="st2" d="M238.75,116.84c0,0-9.72,8.16-10.8,16.2C227.95,133.04,243.31,116.84,238.75,116.84z"/>
		<path class="st2" d="M259.03,114.08c0,0-10.08,6.36-11.76,16.06c0,0,0.48,0.91,2.4-0.67
			C249.67,129.47,261.79,114.56,259.03,114.08z"/>
	</g>
	<g id="letters_x5F_o_x5F_g_1_">
		<path id="letters_x5F_o_x5F_g" d="M265.37,143.4c-4.06,0.59-4.06,0.05-3.82-2.32c0.14-1.42,1.05-3.84,1.05-3.84
			c2.71-3.78,6.81-5.64,7.72-7.04c0.17-0.26,0.36-0.51,0.37-0.83l0-0.01c0.04-0.71-0.97-1.12-1.24-1.3
			c-1.79-1.2-3.83-0.01-10.02,3.15c-5.88,3.01-6.32,13.59-5.69,15.39c0.63,1.8,3.51,6.57,10.98,4.03s9.72-17.35,10.35-17.44
			c0.46-0.07,3.78-0.04,5.58-0.02c0.66,0.01,1.19,0.53,1.22,1.19l0,0c0.02,0.54-0.32,1.04-0.83,1.21c-3.43,1.17-4.62,5-4.78,5.56
			c-0.01,0.05-0.02,0.09-0.03,0.14c-1.14,6.33,1.99,6.77,1.99,6.77c3.21,0.78,5.6-0.27,6.17-0.56c0.1-0.05,0.21-0.09,0.31-0.11
			c0.18-0.04,0.36-0.06,0.53-0.08c0.79-0.1,1.48,0.54,1.41,1.34l0,0.02c-0.03,0.36-0.21,0.69-0.51,0.89
			c-1.79,1.26-3.37,1.66-5.04,1.84c-1.8,0.2-15.97,5.74-14.04,12.49c1.68,5.88,5.79,4.16,7.1,3.53c0,0,6.78-2.46,8-4.55
			c0.06-0.11,0.17-0.18,0.28-0.25c1.29-0.94,5.38-5.8,6.18-6.75c0.07-0.08,0.13-0.15,0.22-0.2c0.5-0.32,2.44-2.34,3.05-3
			c0.13-0.13,0.29-0.23,0.46-0.3c1.48-0.62,4.69-3.23,5.86-4.21c0.28-0.24,0.44-0.58,0.44-0.95v-0.92c0-0.98-1.09-1.58-1.91-1.04
			c-1.39,0.92-2.56,1.06-2.68,0.77c-0.18-0.42,0.24-1.62,0.24-1.62c0.6-0.06,8.22-10.14,8.94-13.68c0.66-3.22-3.36-2.52-4.09-2.36
			c-0.08,0.02-0.14,0.04-0.21,0.06c-4.32,1.67-8.8,10.94-9.94,13.44c-0.18,0.4-0.56,0.66-1,0.71c-0.66,0.07-1.35,0.12-1.93,0.15
			c-0.71,0.04-1.3-0.53-1.3-1.24v-2.76c0-0.36,0.15-0.7,0.43-0.94c0.79-0.68,2.46-2.08,3.2-2.42c0.92-0.42,5.24-4.32,5.86-4.88
			c0.05-0.05,0.1-0.1,0.15-0.16c3.05-3.86,0.8-2.97-3.04-2.7c-2.9,0.2-4.59,1.67-5.25,2.39c-0.24,0.26-0.58,0.4-0.93,0.4h-7.67
			l-0.09-1.26l-4.28,0.14c-0.55,0.02-0.98,0.41-1.16,0.93C271.98,130.21,265.79,143.34,265.37,143.4z"/>
		<path class="st3" d="M280.75,156.08c0,0-4.8,1.8-6.36,4.2s0.48,2.04,2.28,1.44C278.47,161.12,280.87,157.64,280.75,156.08z"/>
	</g>
	<g id="letters_x5F_g_x5F_s">
		<path id="g_x5F_s" d="M325.66,130.76c1.98-0.18,0.18,5.22-2.25,7.11s-2.88,7.74-1.57,4.86c1.31-2.88,18.96-16.58,21.46-17.59
			c5.49-2.21,7.11,0.13,7.11,0.13c-0.63-1.08,3.24,4.32-0.36,4.77c-2.6,0.32-4.22,1.62-4.22,1.62c0.46,6.57,0.8,4.5-1.9,13.59
			c-2.7,9.09-12.69,6.75-14.85,6.75c-2.16,0-3.06-7.29-3.06-7.29c-2.52,2.34-11.16,7.56-11.16,7.56
			c-3.87,9.18-9.09,12.15-16.11,15.3c-7.02,3.15-6.21-5.67-6.21-5.67c0.81-4.32,7.02-7.74,7.02-7.74
			c4.86-3.78,11.34-5.13,11.34-5.13l0.45-2.61c-2.16,2.52-7.65,1.31-7.65,1.31c-5.04-4.72-0.45-10.31,4.41-15.89
			c4.86-5.58,14.4-4.51,14.4-4.51c-7.02,3.25-12.78,11.53-12.78,11.53s-1.89,4.5,3.78,1.98
			C319.18,138.32,314.29,131.81,325.66,130.76z"/>
		<path class="st4" d="M339.19,133.88c0,0-6,4.32-6.6,6.36c-0.6,2.04,1.56,5.04,3.84,3.96S342.55,132.56,339.19,133.88z"/>
		<path class="st3" d="M306.55,155.36c0,0-6.72,2.76-7.08,4.8c-0.36,2.04-0.24,1.92,1.92,2.04S306.07,156.92,306.55,155.36z"/>
	</g>
	<circle id="period" cx="346.77" cy="148.54" r="1.94"/>
	<path id="apostrophe" d="M332.95,128.11c0,0,8.04-5.51,4.92-10.67c-3.12-5.16-7.92-1.2-8.4,0c-0.48,1.2-1.08,5.4,0.72,5.4
		s2.4,1.92,1.2,2.76C330.19,126.44,327.67,129.18,332.95,128.11z"/>
</g>
<g id="inner_x5F_design">
	<path id="inner_x5F_shield" class="st5" d="M199.79,197.4c0,0-34.92,11.52-52.2,28.8s-41.04,39.6-24.84,83.52
		s87.12,76.68,149.04,69.48s106.92-37.44,115.56-86.4c8.64-48.96-55.44-91.08-82.32-94.44"/>
	<g id="grape_x5F_fruit">
		<g id="fruits">
			
				<ellipse transform="matrix(0.0547 -0.9985 0.9985 0.0547 -39.6058 468.1833)" class="st6" cx="227.47" cy="255.01" rx="4.44" ry="7"/>
			<circle class="st6" cx="229.94" cy="270.28" r="6.18"/>
			
				<ellipse transform="matrix(0.0547 -0.9985 0.9985 0.0547 -61.0839 503.2342)" class="st6" cx="235.25" cy="283.88" rx="4.85" ry="6.05"/>
			
				<ellipse transform="matrix(0.0547 -0.9985 0.9985 0.0547 -20.777 459.5792)" class="st6" cx="232.34" cy="240.76" rx="4.44" ry="7"/>
			
				<ellipse transform="matrix(0.0547 -0.9985 0.9985 0.0547 -28.8878 488.9806)" class="st6" cx="243.82" cy="259.75" rx="5.45" ry="6.62"/>
			
				<ellipse transform="matrix(0.0547 -0.9985 0.9985 0.0547 -37.1625 506.551)" class="st6" cx="248.96" cy="272.9" rx="5.25" ry="6.6"/>
			
				<ellipse transform="matrix(0.0547 -0.9985 0.9985 0.0547 -10.5813 479.8083)" class="st6" cx="248.13" cy="245.49" rx="5.11" ry="6.86"/>
			
				<ellipse transform="matrix(0.0547 -0.9985 0.9985 0.0547 -15.2116 508.4021)" class="st6" cx="260.91" cy="262.24" rx="3.9" ry="4.76"/>
			
				<ellipse transform="matrix(0.9548 -0.2973 0.2973 0.9548 -63.6594 93.1578)" class="st6" cx="274.46" cy="255.88" rx="5.04" ry="5.95"/>
			<circle class="st6" cx="281.13" cy="243.44" r="4.44"/>
			<circle class="st6" cx="263.54" cy="247.15" r="5.38"/>
			<circle class="st6" cx="272.11" cy="235.89" r="4.98"/>
			<circle class="st6" cx="237.94" cy="228.28" r="6.18"/>
			
				<ellipse transform="matrix(0.0547 -0.9985 0.9985 0.0547 -42.6668 443.9155)" class="st6" cx="213.13" cy="244.49" rx="5.11" ry="6.86"/>
			
				<ellipse transform="matrix(0.0547 -0.9985 0.9985 0.0547 -20.3149 438.5608)" class="st6" cx="221.47" cy="230.01" rx="4.44" ry="7"/>
		</g>
		<path id="stem" class="st7" d="M247.72,236.77l3.61,0.2c0,0,2.28-18.99,5.43-21.25c0,0,4.8-10.05,7.5-11.32s-5.54,1.52-9.12,7.79
			C255.13,212.2,245.47,233.53,247.72,236.77z"/>
		<path id="leave" class="st8" d="M249.64,220.08c0,0-6.18-5.29-6.47-14.81s3.76-6.87,3.76-6.87l2.1-6.56l2.22-1.09l2.28-2.3
			l1.04,2.69l3.2-2.45l1.87,0.1l0.61,5.7c0,0,4.94-3.57,8.06-5.22c3.12-1.65,5.05-1.54,3.54,1c-1.51,2.55,9.66,1.74,9.66,1.74
			l-8.44,8.84l5.35,0.7l-6.68,6.31l6.29,0.75l-3.95,4.43l3.65,1.01c0,0-8.68,6.39-13.88,6.82c-5.19,0.43,4.8,2.6,4.8,2.6
			l-12.93,2.32"/>
	</g>
	<g id="placeholder">
		<g id="left">
			<path class="st9" d="M113.93,556.68c0,0,55.08-3.42,55.8-2.88c0.72,0.54,2.52,2.88,2.52,2.88l-1.98,3.24L113.93,556.68z"/>
			<ellipse class="st9" cx="178.91" cy="557.28" rx="3.96" ry="3.54"/>
		</g>
		<g id="right">
			<path class="st9" d="M391.87,556.68c0,0-55.08-3.42-55.8-2.88c-0.72,0.54-2.52,2.88-2.52,2.88l1.98,3.24L391.87,556.68z"/>
			<ellipse class="st9" cx="326.89" cy="557.28" rx="3.96" ry="3.54"/>
		</g>
	</g>
	<g id="text">
		<rect x="181.55" y="274.97" class="st10" width="213.2" height="133.89"/>
		<text transform="matrix(1.1 0 0 1.25 181.5504 358.1313)"><tspan x="0" y="0" class="st11 st12"> </tspan><tspan x="8.48" y="0" class="st11 st13">1972 </tspan></text>
		<rect x="113.75" y="406.68" class="st10" width="309.96" height="66.96"/>
		<text transform="matrix(1.1 0 0 1.25 113.7501 457.8022)" class="st14 st15">SANTE </text>
		<rect x="105.91" y="480.88" class="st10" width="324" height="25.92"/>
		<text transform="matrix(1.1 0 0 1.75 105.9102 492.8228)" class="st14 st16 st17">ALC.14.5% BY VOL. 750ML</text>
		<rect x="182.39" y="551.12" class="st10" width="149.04" height="69.12"/>
		<text transform="matrix(1.1 0 0 1.75 182.3902 564.1392)" class="st18 st19 st20">WINE</text>
		<rect x="196.43" y="54.48" class="st10" width="275.12" height="74.52"/>
		<text transform="matrix(1.1 0 0 1.75 196.4303 61.0728)"><tspan x="0" y="0" class="st18 st21 st22">Domaine De </tspan><tspan x="0" y="6.86" class="st18 st21 st22">Champ bruile</tspan></text>
		<rect x="214.43" y="611.48" class="st10" width="275.12" height="74.52"/>
		<text transform="matrix(1.1 0 0 1.75 214.4303 618.0728)"><tspan x="0" y="0" class="st18 st21 st22">wine de</tspan><tspan x="0" y="6.86" class="st18 st21 st22">burgundy</tspan></text>
	</g>
</g>
</svg>
