<?xml version="1.0" encoding="utf-8"?>
<!-- Generator: Adobe Illustrator 23.0.1, SVG Export Plug-In . SVG Version: 6.00 Build 0)  -->
<svg version="1.1" id="waving_x5F_hand" xmlns="http://www.w3.org/2000/svg" xmlns:xlink="http://www.w3.org/1999/xlink" x="0px"
	 y="0px" viewBox="0 0 89.23 74.22" style="enable-background:new 0 0 89.23 74.22;" xml:space="preserve">
<style type="text/css">
	.st0{fill:#FFFFFF;stroke:#000000;stroke-miterlimit:10;}
	.st1{fill:none;stroke:#000000;stroke-miterlimit:10;}
</style>
<path id="hand" class="st0" d="M17.96,32.32c0,0-0.48-5.88,6.12-3.84l8.28,17.4c0,0,2.52,1.44,2.52-1.44L24.8,21.52
	c0,0,0.12-5.88,5.76-2.52l10.68,22.08c0,0,3,2.64,2.52-1.32L30.88,12.4c0,0,0.28-7.44,6.88-2.88l12.36,27.24
	c0,0,3.12,3.24,2.76-1.44L41.96,12.4c0,0,0-8.04,6.84-3.12L62,38.44c0,0,2.16,2.49,2.64-1.15L65.48,25c0,0,4.32-6.72,6.72,0.48
	c0,0,1.08,19.8,0,25.92s-2.4,22.08-24.84,22.32c0,0-9-1.32-14.76-10.68L17.96,32.32z"/>
<g id="outer_x5F_lines">
	<path class="st1" d="M68.66,0.42c0,0,23.35,14.57,19.68,39.79"/>
	<path class="st1" d="M67.24,8.63c0,0,15.81,9.4,13.93,27.31"/>
</g>
<g id="outer_x5F_lines_x5F_left">
	<path class="st1" d="M21.01,69.83c0,0-23.53-14.27-20.19-39.53"/>
	<path class="st1" d="M22.33,61.61c0,0-15.93-9.2-14.27-27.13"/>
</g>
</svg>
